<svg width="238" height="84" viewBox="0 0 238 84" fill="none" xmlns="http://www.w3.org/2000/svg">
<g clip-path="url(#clip0_173_1956)">
<path d="M145.821 17.7138C145.242 16.8105 144.572 15.9726 143.757 15.2132C140.182 11.7961 135.266 10.6309 130.771 11.6783C129.114 12.0711 127.511 12.7519 126.052 13.7469C125.276 14.2575 124.527 14.8859 123.857 15.5798C123.2 16.2606 122.634 16.9807 122.135 17.7662C118.98 22.6496 119.191 29.0255 122.674 33.6864C123.121 34.3017 123.633 34.8778 124.212 35.4408C124.711 35.9252 125.25 36.3703 125.815 36.7631C126.091 36.9595 126.38 37.1558 126.67 37.313C132.164 40.6646 139.459 39.8921 144.125 35.0611C144.861 34.2755 145.505 33.4507 146.044 32.5736C146.057 32.5474 146.057 32.5212 146.07 32.495C148.765 28.0044 148.699 22.3485 145.899 17.9102C145.86 17.8448 145.834 17.7924 145.807 17.7269L145.821 17.7138ZM138.342 30.0337H133.767C131.06 30.0337 129.719 27.4938 129.719 24.4825V19.9919H132.847V24.4825C132.847 26.4857 133.557 27.4938 134.95 27.4938H138.342V30.0337Z" fill="url(#paint0_linear_173_1956)"/>
<path d="M144.927 2.81483H144.914C144.388 2.55299 143.849 2.29114 143.284 2.04239C143.271 2.04239 143.244 2.04239 143.231 2.0293C142.311 1.64962 141.391 1.32231 140.431 1.03428C140.379 1.03428 140.313 0.995006 140.261 0.981914C139.616 0.798622 138.959 0.641515 138.302 0.523684C138.065 0.484407 137.816 0.432038 137.579 0.379669C137.395 0.353485 137.237 0.314208 137.067 0.288023C137.067 0.288023 137.04 0.288023 137.014 0.288023C136.488 0.20947 135.962 0.144008 135.437 0.104732H135.266C135.069 0.104732 134.885 0.0785471 134.701 0.0654548C134.648 0.0523626 134.582 0.0523626 134.53 0.0523626H134.214C133.728 0.026178 133.242 0.0130858 132.755 0.026178C132.453 0.026178 132.151 0.026178 131.835 0.0654548C131.493 0.0654548 131.152 0.104732 130.81 0.144008C130.521 0.144008 130.218 0.183285 129.956 0.222562C129.916 0.222562 129.85 0.222562 129.811 0.248747C129.588 0.261839 129.364 0.301116 129.141 0.353485C129.009 0.353485 128.865 0.392762 128.72 0.418946C128.378 0.471315 128.063 0.536776 127.721 0.61533C127.392 0.680791 127.077 0.772437 126.762 0.850991C126.131 1.0081 125.5 1.19139 124.882 1.42705C124.553 1.53179 124.251 1.64962 123.962 1.76745C123.712 1.87219 123.462 1.96383 123.226 2.05548C122.582 2.33042 121.938 2.64463 121.32 2.97194C121.031 3.12905 120.742 3.28615 120.466 3.44326C120.19 3.61346 119.9 3.77057 119.637 3.94077C119.48 4.0455 119.348 4.13715 119.191 4.25498C118.941 4.41209 118.744 4.59538 118.507 4.76558C118.507 4.76558 118.481 4.76558 118.468 4.73939C115.642 2.93266 112.461 1.6758 109.03 1.09974C107.492 0.850991 105.915 0.720068 104.298 0.746253C90.2604 1.0081 79.088 12.5817 79.3509 26.5642C79.6006 40.0754 90.4182 50.9027 103.812 51.4133C104.285 51.4264 104.772 51.4395 105.258 51.4133C110.581 51.3217 115.51 49.5804 119.559 46.7001C119.559 46.7001 119.559 46.7001 119.572 46.7001C119.808 46.8572 120.058 47.0012 120.308 47.1583C120.374 47.1976 120.452 47.25 120.518 47.2893C121.951 48.1272 123.476 48.8211 125.079 49.3448C125.263 49.4102 125.421 49.4626 125.605 49.515C125.657 49.5411 125.697 49.5542 125.763 49.5673C126.012 49.6459 126.249 49.7244 126.499 49.7899C126.932 49.9208 127.366 50.0125 127.8 50.1041C128.102 50.1696 128.418 50.235 128.733 50.2874C128.904 50.3136 129.088 50.3398 129.246 50.366C129.548 50.4183 129.877 50.4576 130.192 50.4969C130.495 50.5362 130.797 50.5623 131.086 50.5754C131.927 50.654 132.808 50.6802 133.689 50.6671C134.057 50.6671 134.411 50.6409 134.779 50.6278C134.977 50.6016 135.174 50.5885 135.371 50.5754C135.489 50.5754 135.608 50.5492 135.726 50.5362C135.726 50.5362 135.752 50.5362 135.765 50.5362C136.081 50.4969 136.409 50.4707 136.712 50.4314C137.316 50.3398 137.934 50.2481 138.512 50.1172C138.683 50.0779 138.841 50.0517 139.012 50.0125C139.748 49.8423 140.484 49.6328 141.207 49.3971C141.207 49.3971 141.233 49.3971 141.246 49.3971C142.193 49.0829 143.126 48.7163 144.046 48.2974C144.309 48.1665 144.585 48.0355 144.861 47.9046C145.387 47.6297 145.899 47.3285 146.412 47.0274C146.872 46.7525 147.319 46.4514 147.766 46.1502C148.2 45.8491 148.633 45.5349 149.054 45.1945C149.264 45.0243 149.461 44.8672 149.659 44.6839C150.066 44.3304 150.474 43.99 150.842 43.6103C151.039 43.4271 151.223 43.2438 151.407 43.0736C151.591 42.8641 151.775 42.6677 151.959 42.4713C152.143 42.2749 152.327 42.0655 152.485 41.8691C152.774 41.5549 153.05 41.2406 153.286 40.9133C153.497 40.6646 153.694 40.4027 153.878 40.1278C154.088 39.8529 154.285 39.5779 154.469 39.2899C154.614 39.0804 154.745 38.8578 154.877 38.6484C155.205 38.1116 155.521 37.5748 155.797 37.038C155.968 36.7107 156.139 36.3965 156.27 36.0561C156.441 35.7419 156.572 35.4015 156.717 35.0611C156.888 34.6814 157.019 34.3017 157.164 33.909C157.243 33.6864 157.335 33.4638 157.4 33.2413C157.466 33.0187 157.558 32.783 157.598 32.5605C157.703 32.2332 157.782 31.9189 157.86 31.6047C157.939 31.2643 158.031 30.937 158.097 30.5966C158.255 29.8504 158.373 29.1172 158.465 28.3709C158.491 28.1484 158.518 27.9258 158.531 27.7032C158.557 27.3628 158.583 27.0486 158.597 26.7082C158.623 26.2631 158.636 25.8179 158.636 25.3728V24.8753C158.452 15.2525 152.918 6.99127 144.887 2.81483H144.927ZM150.855 28.528C150.802 28.8815 150.736 29.2088 150.644 29.5361C150.566 29.8766 150.474 30.2039 150.368 30.5443C150.263 30.8847 150.158 31.1989 150.027 31.5C149.908 31.8273 149.79 32.1415 149.645 32.4426C149.514 32.7569 149.369 33.058 149.199 33.346C149.054 33.6471 148.909 33.9482 148.712 34.2363C147.437 36.4358 145.676 38.3342 143.573 39.7874C143.323 39.9707 143.06 40.154 142.784 40.298C142.653 40.3896 142.508 40.4813 142.377 40.5598C142.114 40.73 141.812 40.8871 141.536 41.0312C141.457 41.0835 141.352 41.149 141.26 41.1883C141.154 41.2406 141.036 41.3061 140.931 41.3454C140.431 41.581 139.919 41.8036 139.393 41.9869C139.34 41.9869 139.288 42.0262 139.235 42.0393C139.117 42.0916 138.986 42.1309 138.854 42.1702C138.67 42.2357 138.486 42.288 138.315 42.3404C138.052 42.4189 137.789 42.4975 137.513 42.563C137.448 42.563 137.356 42.6022 137.29 42.6153C137.211 42.6415 137.106 42.6415 137.027 42.6677C136.922 42.6939 136.804 42.707 136.712 42.7332C136.291 42.8248 135.857 42.8903 135.424 42.9426C135.358 42.9426 135.266 42.9557 135.2 42.9688H135.108C134.727 43.0081 134.333 43.0343 133.965 43.0474C133.873 43.0474 133.767 43.0474 133.675 43.0474C133.307 43.0474 132.966 43.0474 132.611 43.0474C132.44 43.0474 132.282 43.0474 132.111 43.0474C131.914 43.0474 131.704 43.0212 131.52 42.995C131.401 42.995 131.296 42.9819 131.178 42.9688C131.112 42.9688 131.033 42.9688 130.968 42.9426C130.823 42.9426 130.692 42.9034 130.56 42.8903C130.337 42.851 130.113 42.8117 129.903 42.7724C129.864 42.7724 129.824 42.7593 129.785 42.7463C129.509 42.707 129.246 42.6415 128.97 42.563C128.851 42.5368 128.733 42.5106 128.615 42.4713C128.589 42.4713 128.549 42.4582 128.523 42.4451C128.523 42.4451 128.497 42.4451 128.483 42.4451C128.405 42.432 128.326 42.4059 128.247 42.3797C128.181 42.3666 128.115 42.3404 128.05 42.3273C127.853 42.2749 127.655 42.2095 127.471 42.144C127.432 42.1309 127.392 42.1178 127.353 42.1047C126.919 41.9476 126.499 41.7905 126.091 41.6072C125.815 41.4894 125.539 41.3454 125.263 41.2014C124.908 41.0312 124.58 40.8348 124.251 40.6384C123.87 40.4289 123.515 40.1933 123.16 39.9445C122.884 39.7481 122.595 39.5517 122.332 39.3423C122.017 39.0935 121.701 38.8186 121.386 38.5305C121.162 38.3342 120.939 38.1247 120.728 37.9283C120.544 37.745 120.374 37.5617 120.203 37.3653C120.058 37.182 119.927 36.9987 119.782 36.8285C119.782 36.8155 119.756 36.7893 119.743 36.7762C119.743 36.7762 119.729 36.8024 119.716 36.8155C119.716 36.8416 119.69 36.8547 119.677 36.8809C119.335 37.326 118.954 37.8105 118.586 38.2163C118.139 38.7138 117.679 39.1852 117.166 39.6303C116.233 40.4944 115.195 41.2537 114.091 41.8953C114.051 41.9214 114.025 41.9345 113.986 41.9607C111.396 43.4401 108.412 44.3173 105.218 44.3697C102.747 44.409 100.368 43.9638 98.1995 43.1259C91.496 40.5075 86.6721 34.0792 86.5407 26.4464C86.3698 17.2032 93.1127 9.43952 102.024 8.06483C102.839 7.93391 103.681 7.85535 104.548 7.84226C107.637 7.78989 110.568 8.49688 113.171 9.8061C113.197 9.8061 113.236 9.83229 113.276 9.85847C114.695 10.5785 116.023 11.495 117.193 12.5817C117.508 12.8304 117.797 13.1184 118.086 13.4065C118.126 13.4588 118.178 13.5112 118.231 13.5636C118.547 13.9302 118.849 14.3753 119.138 14.7288C119.164 14.7026 119.204 14.6633 119.243 14.611C119.296 14.5193 119.361 14.4277 119.44 14.3491C119.467 14.2968 119.506 14.2706 119.545 14.2182C119.703 14.0218 119.861 13.8123 120.032 13.629C120.084 13.5636 120.15 13.4981 120.203 13.4327C120.347 13.2625 120.492 13.1184 120.663 12.9613C120.715 12.8959 120.794 12.8173 120.873 12.7519C120.873 12.7519 120.873 12.7519 120.886 12.7388C120.952 12.6733 121.018 12.6078 121.083 12.5424C122.095 11.5736 123.252 10.7226 124.488 10.0156C125.381 9.50498 126.328 9.05984 127.327 8.69326C127.655 8.56234 127.997 8.4576 128.339 8.35286C128.641 8.26122 128.957 8.16957 129.285 8.10411C129.351 8.10411 129.443 8.07792 129.509 8.05174C129.574 8.05174 129.627 8.02555 129.706 8.01246C129.732 7.99937 129.745 7.99937 129.772 7.99937C130.442 7.88154 131.112 7.76371 131.809 7.69825C131.94 7.69825 132.072 7.67206 132.203 7.67206C132.453 7.64588 132.703 7.63279 132.952 7.63279C133.544 7.63279 134.122 7.63279 134.701 7.69825C134.753 7.69825 134.806 7.69825 134.845 7.69825C135.174 7.72443 135.489 7.75062 135.805 7.81608C136.002 7.84226 136.212 7.86845 136.422 7.90772C136.554 7.90772 136.672 7.947 136.804 7.98628C136.935 8.01246 137.053 8.03865 137.198 8.06483C137.527 8.13029 137.842 8.22194 138.171 8.31358C138.473 8.39214 138.775 8.49688 139.091 8.60161C139.301 8.65398 139.498 8.73254 139.695 8.81109C139.985 8.90274 140.287 9.03366 140.576 9.17767C140.773 9.25623 140.957 9.34787 141.154 9.43952C141.391 9.54426 141.628 9.66209 141.851 9.8061C147.319 12.6995 151.091 18.4077 151.223 25.0324C151.249 26.2369 151.157 27.4021 150.934 28.5411L150.855 28.528Z" fill="url(#paint1_linear_173_1956)"/>
<path d="M115.458 17.7269C115.339 17.5436 115.195 17.3603 115.037 17.2032C114.708 16.7843 114.327 16.3784 113.933 15.9857C112.96 15.0692 111.882 14.3098 110.739 13.7076C110.634 13.6421 110.502 13.5767 110.371 13.5112C106.691 11.6914 102.392 11.6128 98.6464 13.197C96.9508 13.9171 95.3867 14.9776 94.0197 16.3784C88.6174 21.9557 88.7883 30.8192 94.3877 36.2001C94.9135 36.6976 95.4655 37.1428 96.0307 37.5486C100.487 40.7039 106.362 40.9526 111.041 38.3472C111.146 38.2818 111.265 38.2163 111.37 38.1509C112.421 37.5093 113.407 36.75 114.288 35.8466C114.8 35.3229 115.261 34.7469 115.668 34.1577C115.786 33.9875 115.905 33.8173 116.01 33.6602C119.138 28.7768 118.928 22.414 115.418 17.74L115.458 17.7269ZM106.875 30.9239C106.073 31.2774 105.205 31.4738 104.259 31.4738C103.313 31.4738 102.458 31.2774 101.643 30.9501C102.366 28.0436 102.432 25.7001 102.419 24.7051C102.419 24.4302 102.195 24.2076 101.919 24.2076C100.289 24.1029 98.883 23.9327 97.7 23.7625C97.8972 22.5449 98.4361 21.4451 99.2116 20.5418C100.763 20.7774 102.458 20.9345 104.259 20.9345C106.06 20.9345 107.768 20.7774 109.333 20.5418C110.095 21.4451 110.647 22.5449 110.844 23.7625C109.661 23.9327 108.242 24.1029 106.612 24.2076C106.336 24.2076 106.125 24.4302 106.112 24.7051C106.112 25.7001 106.165 28.0436 106.888 30.937L106.875 30.9239Z" fill="url(#paint2_linear_173_1956)"/>
<path d="M125.224 41.149L125.96 41.5025C125.237 42.4713 124.304 43.5449 123.449 44.3959C122.49 45.3909 121.438 46.2943 120.295 47.1191C120.045 46.962 119.795 46.8179 119.559 46.6608C120.742 45.8229 121.833 44.8934 122.832 43.8722C123.66 43.0343 124.409 42.144 125.105 41.2144L125.184 41.1228C125.184 41.1228 125.224 41.1359 125.237 41.149H125.224Z" fill="url(#paint3_linear_173_1956)"/>
<path d="M124.396 10.0418C124.396 10.0418 122.871 8.32667 122.082 7.5935H122.069C120.952 6.54612 119.743 5.60348 118.455 4.80485C118.691 4.63465 118.888 4.43827 119.138 4.29425C120.374 5.10597 121.583 6.04861 122.674 7.04363H122.687C123.423 7.73752 124.12 8.45759 124.79 9.24313L125.145 9.6359C125.145 9.6359 125.263 9.57043 124.409 10.0548L124.396 10.0418Z" fill="url(#paint4_linear_173_1956)"/>
<path d="M130.771 11.6783C130.771 11.6783 137.684 11.0106 140.169 20.5418C142.64 30.0598 135.016 39.3815 133.991 39.3423C132.966 39.303 143.218 40.5206 147.398 29.5754C149.908 22.427 145.045 15.4489 142.061 13.8123C139.59 11.3117 133.163 10.9975 130.771 11.6652V11.6783Z" fill="url(#paint5_linear_173_1956)"/>
<path d="M124.396 10.0418C124.396 10.0418 122.871 8.32667 122.082 7.5935H122.069C120.952 6.54612 119.743 5.60348 118.455 4.80485C118.691 4.63465 118.888 4.43827 119.138 4.29425C120.374 5.10597 121.583 6.04861 122.674 7.04363H122.687C123.423 7.73752 124.12 8.45759 124.79 9.24313L125.145 9.6359C125.145 9.6359 125.263 9.57043 124.409 10.0548L124.396 10.0418Z" fill="url(#paint6_linear_173_1956)"/>
<path d="M125.96 41.5025C125.237 42.4713 124.304 43.5449 123.449 44.3959C122.555 45.3254 121.596 46.1633 120.544 46.9358C120.466 47.0012 120.387 47.0536 120.308 47.106C120.176 47.0274 120.058 46.9489 119.94 46.8703C119.822 46.7918 119.703 46.7132 119.585 46.6477C119.769 46.5168 119.966 46.3728 120.15 46.2419C120.268 46.1502 120.387 46.0586 120.505 45.9669C121.346 45.3123 122.135 44.6053 122.871 43.846C123.699 43.0081 124.448 42.1178 125.145 41.1883L125.224 41.0966C125.224 41.0966 125.263 41.1097 125.276 41.1228C125.276 41.1228 125.342 41.149 125.408 41.1883C125.447 41.2014 125.473 41.2275 125.513 41.2406C125.552 41.2537 125.592 41.2799 125.631 41.293C125.684 41.3192 125.749 41.3454 125.802 41.3716C125.815 41.3716 125.828 41.3847 125.855 41.3977C125.855 41.3977 125.881 41.3977 125.894 41.4239C125.907 41.4501 125.92 41.4239 125.934 41.437C125.96 41.437 125.973 41.4632 125.986 41.4632C126.012 41.4632 126.012 41.4763 126.012 41.4763L125.96 41.5025Z" fill="url(#paint7_linear_173_1956)"/>
<path d="M21.4774 71.3005L19.0326 71.3791C18.9406 69.2712 18.612 67.7787 18.0337 66.8884C17.4554 66.0112 16.6273 65.5661 15.5495 65.5661H13.6304V79.9414C13.6304 80.8055 14.4716 81.2244 16.1672 81.2244V83.5287H5.37593V81.2244C7.04523 81.2244 7.88645 80.7924 7.88645 79.9414V65.5661H5.94113C4.85017 65.5661 4.02209 66.0112 3.47004 66.8884C2.90484 67.7656 2.5631 69.2581 2.45795 71.3791L0.0131454 71.3005V62.7251H21.4906V71.3005H21.4774Z" fill="#1C2B33"/>
<path d="M47.0295 79.9021C47.0295 80.4389 46.9507 80.9495 46.7798 81.4208C46.6089 81.8921 46.3592 82.298 46.0043 82.6384C45.6626 82.9788 45.2025 83.2537 44.6505 83.437C44.0984 83.6334 43.4412 83.7251 42.6657 83.7251C41.7588 83.7251 40.9964 83.6072 40.3786 83.3847C39.7477 83.1621 39.2351 82.8479 38.8408 82.4551C38.4465 82.0623 38.1573 81.6041 37.9733 81.0804C37.7893 80.5567 37.6972 79.9938 37.6972 79.4046V77.5848C37.6972 76.8516 37.6578 76.2494 37.5658 75.765C37.4869 75.2806 37.3292 74.8878 37.132 74.5998C36.9217 74.3117 36.6589 74.1022 36.3171 73.9713C35.9754 73.8404 35.5416 73.7749 35.029 73.7749H31.7693V79.9414C31.7693 80.8055 32.8076 81.2244 34.8976 81.2244V83.5287H23.5542V81.2637C25.2235 81.2637 26.0647 80.8317 26.0647 79.9676V66.2862C26.0647 65.4221 25.2235 64.99 23.5542 64.99V62.6858H36.9217C37.8418 62.6858 38.7356 62.7513 39.6294 62.8691C40.5101 62.9869 41.2987 63.2357 41.9822 63.6153C42.6657 63.995 43.2178 64.5187 43.6252 65.1995C44.0327 65.8803 44.243 66.7837 44.243 67.9096C44.243 68.6428 44.1247 69.2843 43.9013 69.8342C43.6778 70.384 43.3755 70.8554 43.0206 71.2481C42.6526 71.6409 42.232 71.9551 41.7719 72.2039C41.2987 72.4526 40.8124 72.6228 40.3129 72.7407C40.8255 72.8847 41.2593 73.0941 41.6536 73.3429C42.0348 73.5917 42.3634 73.919 42.6394 74.3117C42.9154 74.7045 43.1126 75.1889 43.2572 75.765C43.4018 76.341 43.4675 77.0087 43.4675 77.7812V80.033C43.4675 80.452 43.5464 80.7531 43.7172 80.9495C43.8881 81.1459 44.0984 81.2506 44.3613 81.2506C44.6373 81.2506 44.8739 81.159 45.0316 80.9626C45.2025 80.7662 45.2814 80.4651 45.2814 80.0461V78.6976H47.0558V79.9021H47.0295ZM31.743 65.7232V71.4445H35.3445C36.396 71.4445 37.1583 71.2219 37.6447 70.7637C38.1179 70.3055 38.3676 69.4938 38.3676 68.3417C38.3676 67.4776 38.131 66.836 37.6578 66.3909C37.1846 65.9458 36.4223 65.7363 35.3445 65.7363H31.743V65.7232Z" fill="#1C2B33"/>
<path d="M70.8861 65.0555C69.2036 65.0555 68.3493 65.4875 68.3493 66.3385V75.058C68.3493 76.4458 68.2047 77.6895 67.9286 78.7893C67.6526 79.889 67.1794 80.8317 66.5091 81.591C65.8387 82.3635 64.9581 82.9526 63.854 83.3716C62.7499 83.7905 61.3697 84 59.7136 84C58.0574 84 56.5853 83.7905 55.4023 83.3716C54.2194 82.9526 53.2598 82.3635 52.5369 81.591C51.8009 80.8186 51.2751 79.889 50.9333 78.7893C50.5916 77.6895 50.4207 76.4458 50.4207 75.058V66.3385C50.4207 65.4744 49.5795 65.0555 47.9102 65.0555V62.7513H59.0827V65.0555C58.018 65.0555 57.2556 65.1602 56.8087 65.3828C56.3618 65.5923 56.1384 65.9196 56.1384 66.3516V75.0711C56.1384 76.1054 56.2041 76.9825 56.3487 77.7157C56.4933 78.4489 56.7299 79.0511 57.0716 79.5224C57.4134 79.9938 57.8734 80.3342 58.4518 80.5567C59.0301 80.7793 59.7662 80.8971 60.6468 80.8971C61.5275 80.8971 62.2767 80.7793 62.8813 80.5567C63.4859 80.3342 63.9854 79.9807 64.3535 79.5224C64.7346 79.0511 64.9975 78.4489 65.1552 77.7157C65.313 76.9825 65.3918 76.0923 65.3918 75.0711V66.3516C65.3918 65.9196 65.1684 65.6054 64.7083 65.3828C64.2483 65.1733 63.4859 65.0555 62.4081 65.0555V62.7513H70.8729V65.0555H70.8861Z" fill="#1C2B33"/>
<path d="M92.679 69.5592L89.8398 69.7818C89.5638 68.3286 88.9855 67.1895 88.1311 66.3778C87.2768 65.5661 86.1201 65.1602 84.6611 65.1602C82.5449 65.1602 81.0333 65.8541 80.1395 67.255C79.2457 68.6428 78.7988 70.6197 78.7988 73.1596C78.7988 74.4819 78.9302 75.6209 79.2063 76.5767C79.4823 77.5324 79.8503 78.3049 80.3367 78.9202C80.8099 79.5224 81.3751 79.9807 82.0191 80.2687C82.6632 80.5567 83.3598 80.7007 84.0827 80.7007C85.844 80.7007 87.211 80.3473 88.1837 79.6403C89.1563 78.9333 89.8793 77.8335 90.3656 76.3279L92.9287 76.9695C92.679 77.899 92.3372 78.7893 91.8903 79.6272C91.4434 80.4651 90.8519 81.2113 90.1159 81.866C89.3798 82.5206 88.486 83.0443 87.4082 83.4239C86.3435 83.8036 85.0685 84 83.6095 84C82.1506 84 80.731 83.7905 79.4297 83.3585C78.1285 82.9264 76.9849 82.2718 76.0254 81.3946C75.0527 80.5175 74.2904 79.4177 73.7252 78.0823C73.16 76.7469 72.884 75.1758 72.884 73.3691C72.884 71.5623 73.16 69.8473 73.7121 68.4595C74.2641 67.0717 75.0133 65.9196 75.9465 65.0162C76.8798 64.1128 77.9707 63.432 79.1931 62.9869C80.4155 62.5418 81.7168 62.3192 83.0969 62.3192C84.4771 62.3192 85.752 62.4894 86.8036 62.8298C87.8419 63.1702 88.67 63.6153 89.2615 64.1521L89.9056 62.7382H92.6658V69.5723L92.679 69.5592Z" fill="#1C2B33"/>
<path d="M118.31 65.0162C117.653 65.0293 116.996 65.1602 116.325 65.3959C115.655 65.6316 115.063 65.9589 114.538 66.3909L110.515 69.6771L117.074 79.8236C117.416 80.3473 117.758 80.7138 118.113 80.9364C118.468 81.1459 118.967 81.2637 119.598 81.2637H120.216V83.568H108.596V81.2637H109.858C110.515 81.2637 110.844 81.0412 110.844 80.596C110.844 80.4127 110.765 80.1509 110.594 79.8367L106.48 72.9632L103.221 75.7126V79.9676C103.221 80.8317 104.049 81.2506 105.731 81.2506V83.5549H95.0055V81.2506C96.6748 81.2506 97.516 80.8186 97.516 79.9676V66.3123C97.516 65.4483 96.6748 65.0293 95.0055 65.0293V62.7251H105.731V65.0293C104.062 65.0293 103.221 65.4614 103.221 66.3123V72.3086L109.779 66.836C110.082 66.5873 110.226 66.2993 110.226 65.9327C110.226 65.6708 110.134 65.4483 109.95 65.2781C109.766 65.0948 109.477 65.0162 109.109 65.0162H108.347V62.712H118.31V65.0162Z" fill="#1C2B33"/>
<path d="M141.115 69.7294L138.578 69.9782C138.46 69.1403 138.223 68.4071 137.842 67.8049C137.461 67.2026 136.988 66.7051 136.422 66.3385C135.844 65.9588 135.187 65.6839 134.451 65.5137C133.715 65.3304 132.913 65.2519 132.046 65.2519C131.664 65.2519 131.257 65.278 130.81 65.3173C130.363 65.3697 129.942 65.4613 129.548 65.6315C129.154 65.7886 128.825 66.0243 128.562 66.3385C128.299 66.6527 128.168 67.0586 128.168 67.5823C128.168 68.0274 128.313 68.394 128.602 68.6951C128.891 68.9832 129.285 69.2319 129.785 69.4283C130.284 69.6247 130.863 69.7818 131.52 69.9127C132.177 70.0436 132.86 70.1746 133.583 70.2924C134.306 70.4102 135.042 70.5542 135.805 70.7244C136.567 70.8946 137.303 71.1041 138.013 71.3398C139.367 71.8242 140.418 72.5312 141.168 73.4738C141.917 74.4034 142.298 75.6733 142.298 77.2837C142.298 78.3834 142.101 79.3522 141.706 80.2032C141.312 81.0542 140.76 81.7481 140.05 82.3111C139.34 82.8741 138.486 83.293 137.5 83.581C136.515 83.8691 135.437 84.0131 134.28 84.0131C132.887 84.0131 131.756 83.8822 130.889 83.6203C130.021 83.3585 129.272 83.0574 128.654 82.717C128.221 82.4682 127.839 82.3504 127.498 82.3504C127.235 82.3504 126.998 82.4682 126.788 82.717C126.578 82.9657 126.407 83.2406 126.275 83.5549H123.712V76.1577L126.249 75.9875C126.394 77.6372 127.103 78.8809 128.365 79.7319C129.627 80.5829 131.296 81.0019 133.399 81.0019C133.978 81.0019 134.543 80.9626 135.069 80.884C135.608 80.8055 136.068 80.6746 136.475 80.4651C136.883 80.2556 137.198 79.9676 137.435 79.601C137.671 79.2213 137.789 78.7369 137.789 78.1477C137.789 77.5062 137.54 77.0349 137.027 76.7076C136.515 76.3803 135.87 76.1185 135.069 75.9221C134.267 75.7257 133.373 75.5686 132.387 75.4376C131.388 75.3067 130.402 75.1103 129.43 74.8485C127.485 74.3379 126.052 73.5785 125.132 72.5573C124.225 71.5362 123.765 70.0829 123.765 68.1976C123.765 67.4121 123.896 66.6658 124.159 65.9588C124.422 65.2519 124.843 64.6234 125.421 64.0867C125.999 63.5499 126.748 63.1047 127.642 62.7774C128.549 62.4501 129.627 62.293 130.902 62.293C132.256 62.293 133.36 62.4108 134.227 62.6596C135.095 62.9083 135.818 63.1702 136.396 63.4713C136.607 63.5891 136.791 63.6677 136.948 63.7201C137.106 63.7724 137.277 63.7986 137.435 63.7986C137.829 63.7986 138.118 63.707 138.315 63.5368C138.512 63.3535 138.71 63.0916 138.92 62.7381H141.089V69.7425L141.115 69.7294Z" fill="#1C2B33"/>
<path d="M159.845 65.0162C157.768 65.0162 156.717 65.4482 156.717 66.2992V80.6746H161.528C162.724 80.6746 163.67 80.2818 164.354 79.4832C165.037 78.6845 165.471 77.3098 165.629 75.346L168.139 75.5424L167.469 83.5287H148.502V81.2244C150.171 81.2244 151.012 80.7924 151.012 79.9414V66.2862C151.012 65.4221 150.171 65.0031 148.502 65.0031V62.6989H159.845V65.0031V65.0162Z" fill="#1C2B33"/>
<path d="M181.099 62.2799C182.624 62.2799 184.017 62.4632 185.305 62.8298C186.593 63.1964 187.698 63.7986 188.631 64.6365C189.564 65.4744 190.287 66.6004 190.8 67.9882C191.312 69.3759 191.575 71.091 191.575 73.1334C191.575 74.8092 191.352 76.3279 190.918 77.6764C190.471 79.0249 189.801 80.164 188.907 81.0935C188 82.0231 186.869 82.7431 185.516 83.2537C184.149 83.7643 182.545 84.0131 180.692 84.0131C179.167 84.0131 177.774 83.8298 176.499 83.4763C175.224 83.1228 174.12 82.5337 173.186 81.7219C172.253 80.9102 171.53 79.8367 171.018 78.5012C170.505 77.1658 170.242 75.5293 170.242 73.5786C170.242 71.8242 170.439 70.24 170.847 68.8392C171.254 67.4383 171.885 66.2469 172.766 65.2781C173.633 64.3092 174.764 63.563 176.131 63.0524C177.498 62.5418 179.154 62.2799 181.112 62.2799H181.099ZM181.231 65.2519C179.43 65.2519 178.089 65.8017 177.222 66.9146C176.354 68.0274 175.907 69.8211 175.907 72.2824C175.907 74.0761 176.026 75.5424 176.249 76.6683C176.473 77.7943 176.788 78.6845 177.209 79.313C177.616 79.9545 178.129 80.3865 178.72 80.6222C179.312 80.8579 179.969 80.9757 180.679 80.9757C181.612 80.9757 182.414 80.8448 183.084 80.5698C183.754 80.2949 184.293 79.8628 184.714 79.2475C185.134 78.6453 185.45 77.8466 185.647 76.8778C185.844 75.909 185.936 74.7176 185.936 73.3167C185.936 71.6933 185.818 70.3579 185.595 69.3236C185.371 68.2893 185.056 67.4645 184.635 66.8622C184.228 66.26 183.728 65.841 183.15 65.6054C182.571 65.3697 181.927 65.2519 181.231 65.2519Z" fill="#1C2B33"/>
<path d="M212.001 80.4127C212.185 80.9757 212.947 81.2506 214.275 81.2506V83.5549H202.984V81.2506H205.153C205.692 81.2506 205.968 81.0804 205.968 80.74C205.968 80.6615 205.942 80.5567 205.889 80.3996L205.1 78.1609H197.503L196.793 80.1771C196.741 80.3211 196.714 80.452 196.714 80.5436C196.714 81.015 197.135 81.2506 197.976 81.2506H199.58V83.5549H191.615L191.588 81.2506C192.39 81.2506 192.982 81.1852 193.35 81.0411C193.718 80.8971 193.941 80.7007 194.033 80.4389L200.342 62.7251H206.02L211.988 80.4127H212.001ZM198.318 75.6995H204.364L201.433 66.5611L198.305 75.6995H198.318Z" fill="#1C2B33"/>
<path d="M227.642 62.7251C229.43 62.7251 230.968 62.8429 232.269 63.0916C233.57 63.3404 234.648 63.8117 235.489 64.5056C236.331 65.2126 236.962 66.2076 237.369 67.5037C237.777 68.7999 237.987 70.5019 237.987 72.5966C237.987 74.6914 237.777 76.5505 237.369 77.9645C236.962 79.3784 236.331 80.4913 235.489 81.3292C234.648 82.1671 233.57 82.7431 232.269 83.0704C230.968 83.3978 229.417 83.5549 227.642 83.5549H216.352V81.2506C218.021 81.2506 218.862 80.8186 218.862 79.9676V66.3124C218.862 65.4483 218.021 65.0293 216.352 65.0293V62.7251H227.642ZM224.58 65.5792V80.6877H228.102C228.931 80.6877 229.601 80.5306 230.127 80.2163C230.652 79.9021 231.06 79.4177 231.349 78.7631C231.638 78.1085 231.835 77.2837 231.954 76.2625C232.072 75.2413 232.125 74.063 232.125 72.6752C232.125 71.2874 232.072 70.1484 231.954 69.2319C231.835 68.3155 231.638 67.5823 231.349 67.0455C231.06 66.5087 230.652 66.1291 230.127 65.9065C229.601 65.697 228.931 65.5792 228.102 65.5792H224.58Z" fill="#1C2B33"/>
</g>
<defs>
<linearGradient id="paint0_linear_173_1956" x1="119.927" y1="25.3204" x2="148.068" y2="25.3204" gradientUnits="userSpaceOnUse">
<stop stop-color="#0080FB"/>
<stop offset="1" stop-color="#0668E1"/>
</linearGradient>
<linearGradient id="paint1_linear_173_1956" x1="79.3377" y1="25.7132" x2="158.662" y2="25.7132" gradientUnits="userSpaceOnUse">
<stop stop-color="#0080FB"/>
<stop offset="1" stop-color="#0668E1"/>
</linearGradient>
<linearGradient id="paint2_linear_173_1956" x1="90.1027" y1="26.0929" x2="118.244" y2="26.0929" gradientUnits="userSpaceOnUse">
<stop stop-color="#0080FB"/>
<stop offset="1" stop-color="#0668E1"/>
</linearGradient>
<linearGradient id="paint3_linear_173_1956" x1="119.545" y1="44.1209" x2="125.96" y2="44.1209" gradientUnits="userSpaceOnUse">
<stop stop-color="#0080FB"/>
<stop offset="1" stop-color="#0668E1"/>
</linearGradient>
<linearGradient id="paint4_linear_173_1956" x1="118.455" y1="7.16146" x2="125.132" y2="7.16146" gradientUnits="userSpaceOnUse">
<stop stop-color="#0080FB"/>
<stop offset="1" stop-color="#0668E1"/>
</linearGradient>
<linearGradient id="paint5_linear_173_1956" x1="130.771" y1="25.3597" x2="148.094" y2="25.3597" gradientUnits="userSpaceOnUse">
<stop stop-color="#0080FB"/>
<stop offset="1" stop-color="#0668E1"/>
</linearGradient>
<linearGradient id="paint6_linear_173_1956" x1="118.455" y1="7.16146" x2="125.132" y2="7.16146" gradientUnits="userSpaceOnUse">
<stop stop-color="#0080FB"/>
<stop offset="1" stop-color="#0668E1"/>
</linearGradient>
<linearGradient id="paint7_linear_173_1956" x1="119.545" y1="44.1209" x2="125.96" y2="44.1209" gradientUnits="userSpaceOnUse">
<stop stop-color="#0080FB"/>
<stop offset="1" stop-color="#0668E1"/>
</linearGradient>
<clipPath id="clip0_173_1956">
<rect width="238" height="84" fill="white"/>
</clipPath>
</defs>
</svg>
