<svg width="16" height="16" viewBox="0 0 16 16" fill="none" xmlns="http://www.w3.org/2000/svg">
<path fill-rule="evenodd" clip-rule="evenodd" d="M9 2C9 2.55228 8.55229 3 8 3C7.44772 3 7 2.55228 7 2C7 1.44772 7.44772 1 8 1C8.55229 1 9 1.44772 9 2ZM9.73244 3C9.90261 2.70583 10 2.36429 10 2C10 0.895431 9.10457 0 8 0C6.89543 0 6 0.895431 6 2C6 2.36429 6.09739 2.70583 6.26756 3H2.98261C2.49283 3 2.07513 3.35474 1.99581 3.83806L0.190686 14.8381C0.0907823 15.4468 0.560558 16 1.17749 16H14.8225C15.4395 16 15.9092 15.4469 15.8093 14.8381L14.0042 3.83806C13.9249 3.35474 13.5072 3 13.0174 3H9.73244ZM8 4H2.98261L1.17749 15L14.8225 15L13.0174 4H8Z" fill="url(#paint0_linear_176_3511)"/>
<defs>
<linearGradient id="paint0_linear_176_3511" x1="0.177246" y1="8" x2="15.8228" y2="8" gradientUnits="userSpaceOnUse">
<stop stop-color="#0080FB"/>
<stop offset="1" stop-color="#0668E1"/>
</linearGradient>
</defs>
</svg>
