<svg width="226" height="56" viewBox="0 0 226 56" fill="none" xmlns="http://www.w3.org/2000/svg">
<g clip-path="url(#clip0_1223_4789)">
<path d="M18.5569 21.0688H25.4767C25.6776 20.3323 25.8646 19.6096 26.0517 18.9006H19.1457C18.9448 19.6371 18.7508 20.3529 18.5569 21.0688Z" fill="black"/>
<path d="M13.902 18.9006H5.1604L5.74918 21.0688H14.3522C14.2068 20.3805 14.0544 19.6646 13.8951 18.9006H13.902Z" fill="black"/>
<path d="M123.816 18.9006H114.687C115.088 19.6096 115.504 20.3323 115.927 21.0688H125.084C124.675 20.3667 124.253 19.644 123.816 18.9006Z" fill="black"/>
<path d="M19.8175 16.4709H26.6819C26.8759 15.7206 27.056 14.9979 27.2222 14.3027H20.4132C20.2123 15.0254 20.0114 15.7482 19.8105 16.4709H19.8175Z" fill="black"/>
<path d="M70.5008 18.9006H62.2372L61.4475 21.0688H69.7666C70.0159 20.3323 70.2584 19.6096 70.5008 18.9006Z" fill="black"/>
<path d="M79.7341 21.0688H88.6628L87.8385 18.9006H78.9514C79.2008 19.5958 79.464 20.3185 79.7341 21.0688Z" fill="black"/>
<path d="M109.457 18.9006H101.138V21.0688H109.478C109.471 20.3392 109.464 19.6165 109.45 18.9006H109.457Z" fill="black"/>
<path d="M42.3296 21.0688H50.3439L50.9742 18.9006H42.8352C42.6621 19.6302 42.4958 20.3529 42.3296 21.0688Z" fill="black"/>
<path d="M36.5526 14.3027H28.7323C28.9055 14.991 29.0856 15.7206 29.2795 16.4709H37.1345C36.9405 15.7482 36.7535 15.0254 36.5596 14.3027H36.5526Z" fill="black"/>
<path d="M37.7648 18.9006H29.9098C30.0968 19.6096 30.2908 20.3323 30.4847 21.0688H38.3189C38.1388 20.3598 37.9518 19.6371 37.7648 18.9006Z" fill="black"/>
<path d="M43.417 16.4709H51.6806L52.311 14.3027H43.9434C43.7633 15.0186 43.5902 15.7482 43.417 16.4709Z" fill="black"/>
<path d="M12.9116 14.3027H3.90674L4.49551 16.4709H13.3826C13.2302 15.7757 13.0778 15.053 12.9116 14.3027Z" fill="black"/>
<path d="M199.775 14.3027H191.65L190.86 16.4709H199.055C199.304 15.7275 199.547 15.0048 199.775 14.3027Z" fill="black"/>
<path d="M207.464 21.0688H216.393L215.568 18.9006H206.681C206.931 19.5958 207.194 20.3185 207.464 21.0688Z" fill="black"/>
<path d="M129.212 16.4709H137.524V14.3027H129.205C129.205 15.0254 129.205 15.7482 129.205 16.4709H129.212Z" fill="black"/>
<path d="M78.0855 16.4709H86.9172L86.0929 14.3027H77.3167C77.5591 14.991 77.8154 15.7137 78.0855 16.4709Z" fill="black"/>
<path d="M72.0385 14.3027H63.9134L63.1238 16.4709H71.3182C71.5675 15.7275 71.81 15.0048 72.0385 14.3027Z" fill="black"/>
<path d="M121.094 14.3027H112.096C112.477 14.991 112.886 15.7137 113.308 16.4709H122.382C121.96 15.755 121.53 15.0323 121.094 14.3027Z" fill="black"/>
<path d="M109.36 14.3027H101.138V16.4709H109.415C109.402 15.7206 109.381 14.9979 109.367 14.3027H109.36Z" fill="black"/>
<path d="M171.431 14.3027H160.999L159.073 16.4709H169.526L171.431 14.3027Z" fill="black"/>
<path d="M32.5697 0H24.3269C23.4056 3.55851 22.2558 7.70206 21.099 11.8732H27.8041C27.8526 11.6598 27.9011 11.4395 27.9496 11.233H28.0119C28.0535 11.4326 28.1089 11.6598 28.1574 11.8732H35.9015C34.6686 7.35103 33.4494 3.04916 32.5767 0H32.5697Z" fill="black"/>
<path d="M40.4871 30.1751H40.4247C40.0784 28.3717 39.552 26.0591 38.9286 23.4917H31.1498C32.639 28.9706 34.2738 34.8417 35.4721 39.5566H44.9826L49.6512 23.4917H41.8032C41.2698 25.9352 40.8126 28.2203 40.5009 30.1751H40.4871Z" fill="black"/>
<path d="M16.1325 30.5881H16.0701C15.8762 28.9017 15.4883 26.6579 14.851 23.4917H6.41418L10.7988 39.5566H20.2954C21.5423 35.179 23.2601 29.177 24.8117 23.4917H17.8919C17.1784 26.1898 16.555 28.6264 16.1186 30.5881H16.1325Z" fill="black"/>
<path d="M9.78754 0H0L3.24173 11.8732H12.3851C11.6439 8.48673 10.785 4.55654 9.78754 0Z" fill="black"/>
<path d="M60.5677 23.4917L54.7146 39.5566H63.7402L67.0512 30.4229H82.5533L86.0444 39.5566H95.6865L89.584 23.4917H60.5677Z" fill="black"/>
<path d="M179.106 32.5497H155.395L163.354 23.4917H152.853L144.174 33.2862V39.5566H177.956L179.106 32.5497Z" fill="black"/>
<path d="M101.138 23.4917V39.5566H109.512V27.5251C109.512 26.2036 109.512 24.8476 109.499 23.4917H101.138Z" fill="black"/>
<path d="M129.261 21.0688H137.524V18.9006H129.226C129.233 19.6371 129.24 20.3598 129.254 21.0688H129.261Z" fill="black"/>
<path d="M129.676 29.2115H129.558C129.032 28.0414 127.924 26.0109 126.483 23.4917H117.326C120.796 29.4937 124.516 35.7916 126.732 39.5566H137.517V23.4917H129.309C129.378 25.6805 129.489 27.6421 129.669 29.2115H129.676Z" fill="black"/>
<path d="M194.781 30.4229H210.29L213.774 39.5566H223.423L217.321 23.4917H188.305L182.451 39.5566H191.47L194.781 30.4229Z" fill="black"/>
<path d="M198.238 18.9006H189.974L189.184 21.0688H197.503C197.753 20.3323 197.995 19.6096 198.238 18.9006Z" fill="black"/>
<path d="M47.5524 0C46.9082 2.66372 45.7583 7.04818 44.5461 11.8732H53.0107L56.4671 0H47.5524Z" fill="black"/>
<path d="M155.007 21.0688H165.488L167.393 18.9006H156.926L155.007 21.0688Z" fill="black"/>
<path d="M202.29 6.17399H202.352C202.795 7.7089 203.405 9.58107 204.195 11.88H212.895L208.378 0.00683594H196.852L192.523 11.88H200.558C201.271 9.67055 201.86 7.73643 202.283 6.17399H202.29Z" fill="black"/>
<path d="M205.815 16.4709H214.647L213.823 14.3027H205.047C205.289 14.991 205.545 15.7137 205.815 16.4709Z" fill="black"/>
<path d="M112.512 0H101.138V11.8732H109.277C109.228 10.6755 109.166 9.63618 109.097 8.85152H109.215C109.54 9.56047 110.073 10.5929 110.759 11.8732H119.639C117.063 7.57129 114.479 3.29695 112.512 0Z" fill="black"/>
<path d="M163.146 11.8732H173.564L177.901 6.93805V0H145.22V7.01377H167.462L163.146 11.8732Z" fill="black"/>
<path d="M74.5599 6.17404H74.6222C75.0655 7.70895 75.6751 9.58112 76.4647 11.88H85.1648L80.6554 0H69.1293L64.8 11.8732H72.8351C73.5486 9.66372 74.1373 7.7296 74.5599 6.16716V6.17404Z" fill="black"/>
<path d="M129.205 11.7217V11.8732H137.524V0H129.205V11.7217Z" fill="black"/>
<path d="M150.554 50.6864L151.225 48.2567H145.338L146.023 45.6824H152.729L153.4 43.2114H143.925L140.517 55.8142H150.082L150.754 53.3501H143.945L144.666 50.6864H150.554Z" fill="black"/>
<path d="M166.679 43.2114H163.112L159.558 47.2655L157.965 43.2114H154.834L157.55 49.2822L151.426 55.8142H154.994L158.692 51.588L160.396 55.8142H163.527L160.722 49.5851L166.679 43.2114Z" fill="black"/>
<path d="M176.647 44.4917C176.19 44.0374 175.635 43.707 174.991 43.5074C174.347 43.3078 173.571 43.2114 172.664 43.2114H168.639L165.231 55.8142H168.023L169.055 51.9941H171.466C172.338 51.9941 173.142 51.884 173.89 51.6706C174.638 51.4572 175.289 51.1337 175.836 50.7139C176.384 50.294 176.82 49.7778 177.139 49.1652C177.457 48.5526 177.617 47.8574 177.617 47.0797C177.617 45.999 177.291 45.1318 176.64 44.4848L176.647 44.4917ZM173.876 48.9863C173.308 49.3786 172.56 49.5713 171.632 49.5713H169.727L170.759 45.7168H172.574C172.996 45.7168 173.343 45.765 173.613 45.8545C173.883 45.944 174.119 46.0885 174.312 46.2744C174.59 46.5497 174.728 46.9007 174.728 47.3206C174.728 48.0433 174.444 48.5939 173.876 48.9863Z" fill="black"/>
<path d="M187.972 43.528C187.314 43.3147 186.517 43.2114 185.575 43.2114H180.955L177.547 55.8142H180.339L181.426 51.7808H183.511L185.471 55.8142H188.644L186.49 51.5123C187.723 51.2232 188.699 50.7208 189.42 49.9981C189.794 49.6264 190.078 49.1859 190.272 48.6834C190.466 48.1809 190.569 47.6234 190.569 47.0108C190.569 45.9646 190.244 45.118 189.6 44.471C189.177 44.0512 188.644 43.7345 187.986 43.528H187.972ZM187.141 48.5389C186.864 48.8142 186.503 49.0207 186.06 49.1514C185.617 49.2822 185.125 49.3511 184.585 49.3511H182.105L183.082 45.7168H185.416C186.296 45.7168 186.912 45.8889 187.265 46.2399C187.529 46.5084 187.667 46.8456 187.667 47.2517C187.667 47.7611 187.494 48.1878 187.141 48.5389Z" fill="black"/>
<path d="M200.766 50.6864L201.438 48.2567H195.543L196.236 45.6824H202.941L203.606 43.2114H194.13L190.729 55.8142H200.295L200.96 53.3501H194.151L194.878 50.6864H200.766Z" fill="black"/>
<path d="M212.063 49.6746C211.793 49.413 211.475 49.179 211.101 48.9725C210.733 48.7661 210.332 48.5733 209.895 48.3944C209.459 48.2154 209.099 48.0571 208.815 47.9263C208.531 47.7955 208.302 47.6648 208.136 47.5478C207.97 47.4308 207.845 47.3069 207.776 47.1761C207.706 47.0522 207.665 46.9008 207.665 46.7356C207.665 46.4258 207.824 46.1299 208.143 45.8614C208.461 45.593 208.919 45.4553 209.514 45.4553C210.11 45.4553 210.671 45.5723 211.135 45.7995C211.599 46.0266 212.077 46.3639 212.555 46.8044L214.474 44.8978C213.934 44.3196 213.276 43.8654 212.514 43.5281C211.752 43.1908 210.823 43.0256 209.722 43.0256C209.043 43.0256 208.399 43.122 207.79 43.3147C207.18 43.5074 206.647 43.7828 206.183 44.1407C205.725 44.4986 205.358 44.9391 205.088 45.4484C204.818 45.9578 204.679 46.536 204.679 47.183C204.679 47.651 204.763 48.0571 204.936 48.4081C205.102 48.7592 205.337 49.0689 205.621 49.3373C205.912 49.6058 206.245 49.8398 206.619 50.0394C206.993 50.239 207.388 50.418 207.796 50.59C208.219 50.7552 208.572 50.9135 208.849 51.0512C209.126 51.1889 209.348 51.3196 209.514 51.4504C209.681 51.5743 209.791 51.7051 209.861 51.829C209.93 51.9529 209.958 52.0974 209.958 52.2488C209.958 52.6481 209.778 52.9647 209.417 53.2056C209.057 53.4465 208.586 53.5635 208.025 53.5635C207.298 53.5635 206.654 53.4189 206.086 53.1367C205.518 52.8545 204.977 52.4416 204.472 51.9047L202.373 53.6667C203.578 55.2154 205.421 55.9932 207.9 55.9932C208.565 55.9932 209.203 55.8968 209.812 55.711C210.422 55.5251 210.955 55.2498 211.412 54.8919C211.869 54.534 212.237 54.0935 212.521 53.5704C212.805 53.0473 212.936 52.4553 212.936 51.7946C212.936 51.3403 212.86 50.9342 212.701 50.59C212.541 50.2459 212.327 49.9362 212.056 49.6746H212.063Z" fill="black"/>
<path d="M223.583 49.6746C223.312 49.413 222.994 49.179 222.62 48.9725C222.253 48.7661 221.851 48.5733 221.414 48.3944C220.978 48.2154 220.618 48.0571 220.334 47.9263C220.05 47.7955 219.821 47.6648 219.655 47.5478C219.489 47.4308 219.364 47.3069 219.295 47.1761C219.226 47.0522 219.184 46.9008 219.184 46.7356C219.184 46.4258 219.343 46.1299 219.662 45.8614C219.981 45.593 220.438 45.4553 221.033 45.4553C221.629 45.4553 222.19 45.5723 222.654 45.7995C223.118 46.0266 223.596 46.3639 224.074 46.8044L225.993 44.8978C225.453 44.3196 224.795 43.8654 224.033 43.5281C223.271 43.1908 222.343 43.0256 221.241 43.0256C220.562 43.0256 219.918 43.122 219.309 43.3147C218.699 43.5074 218.166 43.7828 217.702 44.1407C217.245 44.4986 216.877 44.9391 216.607 45.4484C216.337 45.9578 216.199 46.536 216.199 47.183C216.199 47.651 216.282 48.0571 216.455 48.4081C216.621 48.7592 216.857 49.0689 217.141 49.3373C217.432 49.6058 217.764 49.8398 218.138 50.0394C218.512 50.239 218.907 50.418 219.316 50.59C219.738 50.7552 220.091 50.9135 220.369 51.0512C220.646 51.1889 220.867 51.3196 221.033 51.4504C221.2 51.5743 221.311 51.7051 221.38 51.829C221.449 51.9529 221.477 52.0974 221.477 52.2488C221.477 52.6481 221.297 52.9647 220.936 53.2056C220.576 53.4465 220.105 53.5635 219.544 53.5635C218.817 53.5635 218.173 53.4189 217.605 53.1367C217.037 52.8545 216.496 52.4416 215.991 51.9047L213.892 53.6667C215.097 55.2154 216.94 55.9932 219.42 55.9932C220.084 55.9932 220.722 55.8968 221.331 55.711C221.941 55.5251 222.474 55.2498 222.931 54.8919C223.389 54.534 223.756 54.0935 224.04 53.5704C224.324 53.0473 224.455 52.4553 224.455 51.7946C224.455 51.3403 224.379 50.9342 224.22 50.59C224.06 50.2459 223.846 49.9362 223.576 49.6746H223.583Z" fill="black"/>
</g>
<defs>
<clipPath id="clip0_1223_4789">
<rect width="226" height="56" fill="white"/>
</clipPath>
</defs>
</svg>
